<svg width="118" height="81" viewBox="0 0 118 81" fill="none" xmlns="http://www.w3.org/2000/svg">
<g opacity="0.5">
<rect width="56" height="66" rx="8" fill="#445ADC" fill-opacity="0.12"/>
<rect x="0.5" y="0.5" width="55" height="65" rx="7.5" stroke="#919DD8" stroke-opacity="0.5"/>
</g>
<rect x="62" y="15" width="56" height="66" rx="8" fill="#7839BB" fill-opacity="0.12"/>
<rect x="62.5" y="15.5" width="55" height="65" rx="7.5" stroke="#B090C8" stroke-opacity="0.5"/>
<path d="M26.619 17.7188L36.5189 30.375H16.719L26.619 17.7188Z" fill="#445ADC"/>
<path d="M30.7016 48.0937C29.6293 48.0937 28.5675 47.8755 27.5769 47.4515C26.5862 47.0275 25.6861 46.406 24.9279 45.6225C24.1696 44.839 23.5682 43.9088 23.1578 42.8851C22.7475 41.8615 22.5363 40.7643 22.5363 39.6562L30.7016 39.6562L30.7016 48.0937Z" fill="#445ADC"/>
<rect x="22.5363" y="30.375" width="8.16533" height="9.28125" fill="#445ADC"/>
<rect x="30.7016" y="48.0938" width="8.4375" height="9.79839" transform="rotate(-90 30.7016 48.0938)" fill="#445ADC"/>
<path d="M93.6154 65.8125L83.7155 53.1562L103.515 53.1562L93.6154 65.8125Z" fill="#7839BB"/>
<path d="M89.5327 35.4375C90.605 35.4375 91.6668 35.6557 92.6575 36.0798C93.6481 36.5038 94.5483 37.1253 95.3065 37.9088C96.0647 38.6923 96.6662 39.6224 97.0765 40.6461C97.4869 41.6698 97.6981 42.767 97.6981 43.875L89.5327 43.875L89.5327 35.4375Z" fill="#7839BB"/>
<rect x="97.6981" y="53.1562" width="8.16532" height="9.28125" transform="rotate(-180 97.6981 53.1562)" fill="#7839BB"/>
<rect x="89.5328" y="35.4375" width="8.4375" height="9.79838" transform="rotate(90 89.5328 35.4375)" fill="#7839BB"/>
</svg>
